<svg width="139" height="22" viewBox="0 0 139 22" fill="none" xmlns="http://www.w3.org/2000/svg">
<g clip-path="url(#clip0_275_146)">
<path d="M48.9332 3.68271L44.3986 18.6695H41.6647L38.6932 8.86715C38.6456 8.72703 38.5981 8.58082 38.5506 8.41024C38.503 8.23966 38.4614 8.06908 38.4198 7.88631C38.3782 8.06908 38.3366 8.24575 38.2891 8.41024C38.2415 8.57473 38.194 8.72703 38.1464 8.86715L35.1095 18.6695H32.3638L27.8232 3.68271H30.3788C30.6114 3.67612 30.8408 3.73967 31.0385 3.86547C31.2107 3.98272 31.3354 4.16033 31.3891 4.36503L33.6534 12.8149C33.7069 13.0464 33.7663 13.3023 33.8198 13.5703C33.8733 13.8384 33.9328 14.1308 33.9862 14.4354C34.0457 14.1247 34.111 13.8262 34.1824 13.5703C34.2425 13.3147 34.3159 13.0625 34.4023 12.8149L37.041 4.36503C37.1037 4.16813 37.2267 3.99721 37.3916 3.87766C37.5789 3.73754 37.808 3.66861 38.0394 3.68271H38.925C39.154 3.6734 39.3797 3.74194 39.5668 3.87766C39.7308 4.00508 39.8581 4.17559 39.9353 4.37112L42.5621 12.8149C42.6453 13.0342 42.7167 13.2718 42.788 13.5338C42.8593 13.7957 42.9187 14.0638 42.9782 14.3501L43.1327 13.5338C43.1862 13.2718 43.2337 13.0342 43.2872 12.8149L45.5575 4.36503C45.6108 4.16502 45.7333 3.99177 45.9022 3.87766C46.0913 3.73543 46.3215 3.66248 46.5559 3.67052L48.9332 3.68271Z" fill="#071360"/>
<path d="M53.176 13.7834C53.1851 14.5936 53.4807 15.3729 54.0081 15.9765C54.2517 16.2111 54.5386 16.3934 54.8519 16.5126C55.1653 16.6319 55.4987 16.6858 55.8326 16.6711C56.1687 16.6802 56.504 16.6329 56.8251 16.5309C57.0784 16.4502 57.3249 16.3483 57.562 16.2263L58.1564 15.9156C58.3101 15.825 58.4842 15.7768 58.6615 15.7755C58.7593 15.7713 58.8565 15.7919 58.9447 15.8355C59.0328 15.879 59.109 15.9442 59.1667 16.0253L59.9749 17.0549C59.6921 17.3936 59.3616 17.6872 58.9943 17.926C58.6487 18.1536 58.2775 18.3377 57.8889 18.4743C57.5033 18.61 57.1049 18.7039 56.7003 18.7546C56.3261 18.8072 55.9488 18.8337 55.5711 18.8338C54.8776 18.8395 54.1888 18.7156 53.5386 18.4682C52.9245 18.227 52.366 17.8577 51.8983 17.3838C51.412 16.8747 51.0355 16.2665 50.7929 15.5988C50.5162 14.8059 50.3852 13.9673 50.4065 13.1254C50.4029 12.4271 50.5217 11.7337 50.7572 11.0784C50.9775 10.4558 51.3192 9.88578 51.7616 9.40308C52.2159 8.91359 52.7671 8.52931 53.3781 8.27603C54.64 7.75139 56.0452 7.71674 57.3303 8.17856C57.8783 8.38853 58.375 8.71867 58.7856 9.1459C59.1962 9.57312 59.5109 10.0871 59.7075 10.652C59.9416 11.3114 60.0545 12.0096 60.0403 12.7111C60.0545 12.8855 60.0545 13.0607 60.0403 13.2351C60.0282 13.3524 59.9939 13.4662 59.9393 13.5701C59.8988 13.6492 59.831 13.7101 59.7491 13.7407C59.6493 13.7732 59.5447 13.7876 59.4401 13.7834H53.176ZM57.5383 12.0897C57.5384 11.8031 57.4983 11.5179 57.4194 11.2429C57.345 10.9822 57.2196 10.7397 57.0509 10.5301C56.8793 10.3187 56.6614 10.1517 56.415 10.0428C56.1267 9.91399 55.8142 9.8516 55.4998 9.86C55.2147 9.84403 54.9294 9.88704 54.6609 9.98647C54.3923 10.0859 54.1461 10.2397 53.9368 10.4388C53.5298 10.8973 53.2723 11.4743 53.1998 12.0897H57.5383Z" fill="#071360"/>
<path d="M62.2929 9.50059C62.8832 8.94928 63.5711 8.51912 64.3195 8.23341C65.0814 7.95041 65.8863 7.80809 66.6967 7.81305C67.264 7.80387 67.8274 7.90945 68.3549 8.12375C68.822 8.31922 69.2433 8.61408 69.591 8.98884C69.938 9.36643 70.2033 9.81485 70.3696 10.3048C70.5574 10.8399 70.65 11.4053 70.6429 11.974V18.6754H69.4246C69.2209 18.6858 69.0177 18.6483 68.8303 18.5658C68.666 18.4536 68.5459 18.2851 68.4915 18.0906L68.236 17.4021C67.9745 17.6336 67.7189 17.8408 67.4753 18.0114C67.2367 18.1868 66.9819 18.3377 66.7146 18.4622C66.444 18.5853 66.161 18.6773 65.8706 18.7363C65.5395 18.8002 65.2031 18.8308 64.8663 18.8277C64.4435 18.8329 64.0226 18.7713 63.6182 18.6449C63.2596 18.5307 62.9278 18.342 62.6435 18.0906C62.3672 17.8402 62.1516 17.5273 62.0136 17.1767C61.8596 16.7754 61.7849 16.3468 61.7937 15.9157C61.7972 15.5054 61.897 15.1021 62.0849 14.7399C62.3231 14.2991 62.6693 13.9295 63.0893 13.6676C63.6756 13.301 64.3158 13.0336 64.9851 12.8757C65.9591 12.6408 66.9561 12.5202 67.9567 12.5162V11.9679C67.9993 11.4436 67.8534 10.9215 67.5466 10.4997C67.3933 10.3381 67.2077 10.2125 67.0025 10.1315C66.7973 10.0505 66.5774 10.0161 66.358 10.0306C66.0335 10.0198 65.7097 10.0673 65.4011 10.1707C65.1712 10.2501 64.9485 10.35 64.7355 10.4692L64.1947 10.7678C64.0113 10.8651 63.8068 10.9133 63.6004 10.9079C63.4239 10.9155 63.2501 10.8618 63.1071 10.7556C62.9791 10.658 62.8685 10.5384 62.7802 10.4022L62.2929 9.50059ZM67.9567 14.2342C67.3889 14.2586 66.8232 14.3196 66.2629 14.417C65.893 14.478 65.5331 14.5907 65.1931 14.752C64.9686 14.8558 64.7741 15.0174 64.6285 15.2211C64.5182 15.3929 64.4603 15.5943 64.4621 15.7999C64.447 15.9626 64.4692 16.1267 64.527 16.279C64.5848 16.4313 64.6766 16.5677 64.7949 16.6772C65.0753 16.8634 65.4064 16.9531 65.7399 16.933C66.1491 16.9399 66.5549 16.8546 66.9285 16.6833C67.3084 16.4827 67.6505 16.2145 67.9388 15.8913L67.9567 14.2342Z" fill="#071360"/>
<path d="M76.4142 3.26831V18.6693H73.6328V3.26831H76.4142Z" fill="#071360"/>
<path d="M83.0933 18.8338C82.6685 18.8424 82.2457 18.7723 81.8452 18.6267C81.4992 18.4969 81.1863 18.2887 80.93 18.0174C80.6628 17.7544 80.4593 17.4311 80.3357 17.0731C80.2005 16.6674 80.1342 16.2408 80.1396 15.8121V10.0671H79.1649C79.0246 10.0697 78.8886 10.0174 78.7845 9.92093C78.731 9.86372 78.6896 9.79574 78.663 9.72128C78.6364 9.64683 78.6251 9.56752 78.63 9.48838V8.37351L80.2941 8.06281L80.8884 5.30306C80.9143 5.16434 80.9893 5.04033 81.099 4.95487C81.2087 4.8694 81.3454 4.82851 81.4827 4.84005H82.9328V8.08109H85.6132V10.0671H82.9328V15.6232C82.9193 15.8746 82.993 16.1228 83.1408 16.3238C83.2124 16.4128 83.3037 16.483 83.407 16.5285C83.5104 16.5741 83.6229 16.5937 83.7351 16.5858C83.8518 16.5876 83.968 16.5712 84.0798 16.537C84.1637 16.5095 84.2452 16.4749 84.3235 16.4335L84.5077 16.3299C84.5631 16.3015 84.6241 16.2869 84.686 16.2873C84.7571 16.2852 84.8273 16.3042 84.8881 16.3421C84.953 16.3938 85.0075 16.458 85.0486 16.5309L85.8865 17.8895C85.4967 18.2004 85.056 18.4376 84.585 18.5901C84.1029 18.7493 83.5998 18.8315 83.0933 18.8338Z" fill="#071360"/>
<path d="M90.6478 9.06197C90.8354 8.88641 91.0339 8.7236 91.2422 8.5746C91.4559 8.42536 91.6827 8.29687 91.9197 8.19079C92.166 8.08033 92.423 7.99661 92.6863 7.94101C92.9761 7.88315 93.2707 7.85458 93.5659 7.85572C94.0821 7.84508 94.5945 7.94682 95.0695 8.15424C95.4913 8.34634 95.8667 8.6313 96.169 8.98887C96.4786 9.36509 96.7092 9.80267 96.8465 10.2743C97.0016 10.8038 97.0778 11.3542 97.0723 11.907V18.6693H94.3028V11.907C94.3322 11.4115 94.1889 10.9215 93.8987 10.5241C93.7491 10.3565 93.5645 10.2256 93.3587 10.1412C93.1529 10.0568 92.9312 10.0211 92.7101 10.0367C92.3293 10.0345 91.9531 10.1221 91.6106 10.2926C91.2474 10.4778 90.9161 10.7227 90.63 11.0176V18.6693H87.8486V3.26831H90.6241L90.6478 9.06197Z" fill="#071360"/>
<path d="M102.866 3.26831V18.6693H100.085V3.26831H102.866Z" fill="#071360"/>
<path d="M105.713 9.50084C106.303 8.94954 106.991 8.51938 107.739 8.23367C108.501 7.95117 109.306 7.80886 110.116 7.81331C110.693 7.80619 111.265 7.91807 111.798 8.14229C112.266 8.33574 112.688 8.63088 113.034 9.00738C113.381 9.38625 113.648 9.83416 113.819 10.3233C114.004 10.8591 114.097 11.424 114.092 11.9925V18.6939H112.809C112.605 18.7043 112.402 18.6668 112.214 18.5843C112.052 18.4702 111.932 18.3025 111.876 18.1091L111.656 17.4268C111.394 17.6583 111.139 17.8654 110.895 18.036C110.657 18.2127 110.402 18.3637 110.134 18.4868C109.864 18.6117 109.581 18.7037 109.29 18.761C108.961 18.8249 108.627 18.8555 108.292 18.8523C107.867 18.8574 107.444 18.7957 107.038 18.6696C106.68 18.5567 106.35 18.3678 106.069 18.1152C105.793 17.8648 105.577 17.5519 105.439 17.2014C105.283 16.8005 105.206 16.3718 105.213 15.9403C105.219 15.5296 105.321 15.1263 105.51 14.7645C105.746 14.3238 106.09 13.9541 106.509 13.6923C107.095 13.3256 107.735 13.0582 108.405 12.9003C109.379 12.6654 110.376 12.5449 111.376 12.5408V11.9925C111.419 11.4682 111.273 10.9461 110.966 10.5243C110.814 10.3617 110.628 10.2354 110.423 10.1544C110.217 10.0733 109.997 10.0395 109.778 10.0552C109.453 10.044 109.129 10.0914 108.821 10.1954C108.589 10.2747 108.364 10.3746 108.149 10.4939L107.608 10.7924C107.425 10.8897 107.221 10.9379 107.014 10.9325C106.839 10.9402 106.668 10.8864 106.527 10.7802C106.397 10.6843 106.286 10.5645 106.2 10.4269L105.713 9.50084ZM111.376 14.2345C110.81 14.2584 110.247 14.3195 109.688 14.4172C109.317 14.4792 108.955 14.5919 108.613 14.7523C108.389 14.8577 108.195 15.019 108.048 15.2214C107.919 15.4504 107.866 15.7163 107.897 15.979C107.928 16.2417 108.041 16.4868 108.221 16.6774C108.499 16.8632 108.828 16.9529 109.16 16.9333C109.569 16.9401 109.975 16.8549 110.348 16.6835C110.728 16.4829 111.07 16.2148 111.359 15.8915L111.376 14.2345Z" fill="#071360"/>
<path d="M119.614 9.25694C119.82 9.05664 120.037 8.86753 120.262 8.69037C120.487 8.52144 120.725 8.37265 120.975 8.24564C121.238 8.12034 121.513 8.02435 121.795 7.9593C122.108 7.88882 122.426 7.85409 122.746 7.85574C123.262 7.84509 123.775 7.94684 124.25 8.15425C124.672 8.34636 125.047 8.63131 125.349 8.98888C125.661 9.36358 125.892 9.80166 126.027 10.2743C126.182 10.8038 126.258 11.3542 126.253 11.907V18.6694H123.507V11.907C123.536 11.4115 123.393 10.9215 123.103 10.5241C122.953 10.3565 122.769 10.2256 122.563 10.1412C122.357 10.0568 122.135 10.0211 121.914 10.0367C121.533 10.0345 121.157 10.1221 120.815 10.2926C120.452 10.4765 120.123 10.7216 119.84 11.0176V18.6694H117.059V8.02023H118.752C118.906 8.00831 119.059 8.05083 119.185 8.14067C119.312 8.2305 119.405 8.3622 119.448 8.51369L119.614 9.25694Z" fill="#071360"/>
<path d="M131.441 13.7834C131.455 14.5926 131.75 15.3701 132.273 15.9766C132.518 16.2113 132.806 16.3936 133.12 16.5129C133.434 16.6321 133.769 16.6859 134.104 16.6711C134.44 16.6797 134.775 16.6324 135.096 16.531C135.349 16.4491 135.596 16.3473 135.833 16.2263L136.427 15.9156C136.583 15.8248 136.759 15.7766 136.939 15.7755C137.036 15.7713 137.134 15.7919 137.222 15.8355C137.31 15.8791 137.386 15.9443 137.444 16.0253L138.252 17.0549C137.969 17.3936 137.639 17.6872 137.271 17.9261C136.924 18.1537 136.55 18.3378 136.16 18.4744C135.786 18.6086 135.4 18.7025 135.007 18.7546C134.633 18.8072 134.256 18.8337 133.878 18.8338C133.184 18.8395 132.496 18.7156 131.845 18.4683C131.229 18.2277 130.669 17.8584 130.199 17.3839C129.717 16.8728 129.342 16.2651 129.1 15.5988C128.818 14.809 128.681 13.9725 128.695 13.1315C128.689 12.4329 128.808 11.739 129.046 11.0845C129.263 10.4575 129.605 9.88413 130.051 9.40139C130.498 8.91865 131.038 8.53735 131.637 8.28214C132.306 7.99297 133.027 7.84981 133.753 7.86178C134.381 7.85631 135.005 7.96565 135.595 8.18466C136.144 8.39281 136.642 8.72231 137.053 9.14979C137.464 9.57726 137.778 10.0922 137.973 10.6581C138.209 11.3171 138.324 12.0153 138.311 12.7172C138.313 12.8924 138.303 13.0674 138.282 13.2412C138.27 13.3585 138.235 13.4723 138.181 13.5762C138.137 13.6531 138.07 13.713 137.99 13.7468C137.889 13.7793 137.782 13.7937 137.675 13.7895L131.441 13.7834ZM135.815 12.0897C135.817 11.8034 135.779 11.5182 135.702 11.2429C135.628 10.9822 135.503 10.7397 135.334 10.5302C135.162 10.3187 134.944 10.1517 134.698 10.0428C134.41 9.914 134.097 9.85162 133.783 9.86001C133.498 9.84334 133.212 9.88602 132.943 9.98549C132.675 10.085 132.429 10.2391 132.22 10.4388C131.81 10.8957 131.552 11.4736 131.483 12.0897H135.815Z" fill="#071360"/>
<path d="M11.3305 3.73145L0.484375 18.371H0.870677L11.4435 3.73145H11.3305Z" fill="#071360"/>
<path d="M17.6064 3.73145L28.1792 18.371H28.5655L17.7194 3.73145H17.6064Z" fill="#071360"/>
<path d="M14.611 3.73145V4.05433H14.4981V3.73145H11.6157L1.67285 18.371H27.3768L17.434 3.73145H14.611ZM14.4981 4.34066H14.6229V5.5591H14.4565L14.4981 4.34066ZM14.4624 6.13176H14.6467L14.6823 8.41024H14.4208L14.4624 6.13176ZM14.403 9.31188H14.6942L14.7477 13.1073H14.3257L14.403 9.31188ZM14.2247 18.371L14.302 14.344H14.7477L14.8071 18.371H14.2247Z" fill="#071360"/>
</g>
<defs>
<clipPath id="clip0_275_146">
<rect width="137.821" height="21" fill="white" transform="translate(0.484375 0.852539)"/>
</clipPath>
</defs>
</svg>
