<svg width="362" height="44" viewBox="0 0 362 44" fill="none" xmlns="http://www.w3.org/2000/svg">
<path d="M126.966 1.16988L115.082 43.4833H107.918L100.131 15.8076C100.006 15.412 99.8814 14.9992 99.7568 14.5175C99.6322 14.0359 99.5232 13.5543 99.4141 13.0383C99.3051 13.5543 99.1961 14.0531 99.0715 14.5175C98.9469 14.982 98.8223 15.412 98.6977 15.8076L90.7391 43.4833H83.5436L71.6445 1.16988H78.3416C78.9512 1.15129 79.5523 1.33072 80.0704 1.6859C80.5219 2.01693 80.8486 2.51839 80.9893 3.09635L86.9233 26.9536C87.0634 27.6072 87.2192 28.3296 87.3594 29.0864C87.4995 29.8433 87.6553 30.6689 87.7954 31.5289C87.9512 30.6517 88.1225 29.8089 88.3094 29.0864C88.4671 28.3647 88.6594 27.6527 88.8857 26.9536L95.8008 3.09635C95.9651 2.54043 96.2873 2.05786 96.7197 1.7203C97.2106 1.32469 97.8108 1.13009 98.4174 1.16988H100.738C101.338 1.14361 101.93 1.33711 102.42 1.7203C102.85 2.08007 103.183 2.56147 103.386 3.11355L110.27 26.9536C110.488 27.5728 110.675 28.2436 110.862 28.9832C111.048 29.7229 111.204 30.4797 111.36 31.2881L111.765 28.9832C111.905 28.2436 112.03 27.5728 112.17 26.9536L118.119 3.09635C118.259 2.53166 118.58 2.04248 119.023 1.7203C119.518 1.31875 120.122 1.11279 120.736 1.13548L126.966 1.16988Z" fill="#171717"/>
<path d="M138.084 29.6887C138.108 31.9763 138.882 34.1767 140.264 35.8809C140.903 36.5431 141.655 37.0577 142.476 37.3944C143.297 37.7312 144.171 37.8833 145.046 37.8418C145.927 37.8676 146.805 37.734 147.647 37.4462C148.311 37.2182 148.957 36.9305 149.578 36.5861L151.136 35.7089C151.539 35.4531 151.995 35.3168 152.459 35.3133C152.716 35.3014 152.97 35.3596 153.201 35.4826C153.432 35.6056 153.632 35.7897 153.783 36.0185L155.901 38.9254C155.16 39.8817 154.294 40.7107 153.332 41.3851C152.426 42.0277 151.453 42.5474 150.435 42.9331C149.424 43.3161 148.38 43.5812 147.32 43.7244C146.339 43.873 145.35 43.9477 144.361 43.948C142.543 43.964 140.738 43.6143 139.034 42.9159C137.425 42.2347 135.961 41.1921 134.735 39.8542C133.461 38.4166 132.474 36.6997 131.839 34.8145C131.113 32.5757 130.77 30.2079 130.826 27.831C130.817 25.8593 131.128 23.9018 131.745 22.0516C132.322 20.2938 133.218 18.6843 134.377 17.3215C135.568 15.9394 137.012 14.8545 138.614 14.1394C141.92 12.6581 145.603 12.5602 148.971 13.8641C150.407 14.457 151.709 15.3891 152.785 16.5953C153.861 17.8016 154.685 19.2528 155.201 20.8476C155.814 22.7093 156.11 24.6806 156.073 26.6614C156.11 27.1536 156.11 27.6484 156.073 28.1406C156.041 28.472 155.951 28.7933 155.808 29.0867C155.702 29.31 155.524 29.4817 155.31 29.5683C155.048 29.66 154.774 29.7007 154.5 29.6887H138.084ZM149.516 24.9069C149.516 24.0976 149.411 23.2925 149.204 22.516C149.009 21.7799 148.681 21.0952 148.239 20.5036C147.789 19.9065 147.218 19.435 146.572 19.1275C145.816 18.7639 144.998 18.5878 144.174 18.6115C143.427 18.5664 142.679 18.6879 141.975 18.9686C141.271 19.2493 140.626 19.6836 140.078 20.2456C139.011 21.5402 138.336 23.1694 138.146 24.9069H149.516Z" fill="#171717"/>
<path d="M161.976 17.5964C163.523 16.0399 165.326 14.8254 167.287 14.0187C169.284 13.2197 171.393 12.8179 173.517 12.8319C175.004 12.8059 176.48 13.104 177.862 13.7091C179.086 14.261 180.191 15.0935 181.102 16.1516C182.011 17.2177 182.706 18.4837 183.142 19.8669C183.634 21.3779 183.877 22.9742 183.858 24.5799V43.5005H180.666C180.132 43.5298 179.599 43.4239 179.108 43.1909C178.678 42.8742 178.363 42.3987 178.22 41.8493L177.551 39.9056C176.865 40.5592 176.196 41.1441 175.557 41.6257C174.932 42.1209 174.264 42.5472 173.564 42.8985C172.855 43.2462 172.113 43.5058 171.352 43.6725C170.484 43.8529 169.603 43.9394 168.72 43.9305C167.612 43.9452 166.509 43.7712 165.449 43.4145C164.51 43.092 163.64 42.5592 162.895 41.8493C162.171 41.1423 161.606 40.259 161.244 39.2692C160.841 38.1361 160.645 36.9259 160.668 35.7087C160.677 34.5504 160.939 33.4117 161.431 32.389C162.055 31.1444 162.962 30.101 164.063 29.3616C165.6 28.3265 167.277 27.5714 169.031 27.1256C171.584 26.4626 174.197 26.1221 176.819 26.1107V24.5627C176.93 23.0824 176.548 21.6081 175.744 20.4173C175.342 19.9611 174.856 19.6065 174.318 19.3778C173.78 19.1492 173.204 19.052 172.629 19.0929C171.779 19.0625 170.93 19.1964 170.122 19.4885C169.519 19.7127 168.935 19.9948 168.377 20.3313L166.96 21.1742C166.479 21.449 165.944 21.5851 165.403 21.5698C164.94 21.5912 164.485 21.4397 164.11 21.1398C163.774 20.8642 163.485 20.5267 163.253 20.1421L161.976 17.5964ZM176.819 30.9613C175.331 31.0301 173.848 31.2025 172.38 31.4773C171.411 31.6496 170.467 31.9679 169.577 32.4234C168.988 32.7163 168.478 33.1726 168.097 33.7478C167.808 34.2326 167.656 34.8014 167.661 35.3819C167.621 35.8412 167.68 36.3045 167.831 36.7345C167.982 37.1646 168.223 37.5496 168.533 37.8587C169.268 38.3846 170.135 38.6377 171.009 38.5812C172.082 38.6004 173.145 38.3597 174.124 37.8759C175.12 37.3096 176.016 36.5525 176.772 35.6399L176.819 30.9613Z" fill="#171717"/>
<path d="M198.98 0V43.4831H191.691V0H198.98Z" fill="#171717"/>
<path d="M216.487 43.948C215.373 43.9724 214.265 43.7743 213.216 43.3632C212.309 42.9969 211.489 42.4089 210.817 41.6431C210.117 40.9006 209.584 39.9876 209.26 38.9771C208.906 37.8314 208.732 36.6271 208.746 35.4165V19.1964H206.192C205.824 19.2035 205.468 19.0559 205.195 18.7836C205.055 18.6221 204.946 18.4301 204.876 18.2199C204.807 18.0097 204.777 17.7857 204.79 17.5623V14.4146L209.151 13.5374L210.708 5.74551C210.776 5.35385 210.973 5.00374 211.26 4.76244C211.548 4.52114 211.906 4.40569 212.266 4.43827H216.066V13.589H223.09V19.1964H216.066V34.8833C216.031 35.5931 216.224 36.2938 216.611 36.8614C216.799 37.1126 217.038 37.3108 217.309 37.4394C217.58 37.568 217.874 37.6234 218.169 37.601C218.474 37.6061 218.779 37.5597 219.072 37.4634C219.292 37.3857 219.505 37.2879 219.711 37.171L220.193 36.8786C220.338 36.7983 220.498 36.757 220.661 36.7582C220.847 36.7522 221.031 36.806 221.19 36.913C221.36 37.059 221.503 37.2401 221.611 37.4462L223.807 41.2819C222.785 42.1597 221.63 42.8295 220.396 43.26C219.132 43.7094 217.814 43.9414 216.487 43.948Z" fill="#171717"/>
<path d="M236.283 16.3578C236.774 15.8621 237.295 15.4024 237.84 14.9817C238.4 14.5603 238.995 14.1976 239.616 13.8981C240.261 13.5862 240.935 13.3498 241.625 13.1928C242.384 13.0295 243.156 12.9488 243.93 12.952C245.283 12.922 246.626 13.2093 247.87 13.7949C248.976 14.3372 249.96 15.1418 250.752 16.1514C251.563 17.2136 252.168 18.449 252.527 19.7807C252.934 21.2755 253.133 22.8297 253.119 24.3904V43.4831H245.861V24.3904C245.938 22.9915 245.563 21.6078 244.802 20.4859C244.41 20.0126 243.926 19.6431 243.387 19.4049C242.848 19.1666 242.267 19.0658 241.687 19.1098C240.689 19.1036 239.704 19.3508 238.806 19.8323C237.854 20.3553 236.986 21.0467 236.236 21.8791V43.4831H228.947V0H236.221L236.283 16.3578Z" fill="#171717"/>
<path d="M268.305 0V43.4831H261.016V0H268.305Z" fill="#171717"/>
<path d="M275.765 17.5965C277.311 16.04 279.114 14.8255 281.075 14.0188C283.073 13.2212 285.182 12.8194 287.305 12.832C288.816 12.8119 290.315 13.1277 291.713 13.7608C292.94 14.307 294.045 15.1403 294.953 16.2033C295.861 17.273 296.561 18.5376 297.008 19.9186C297.494 21.4314 297.737 23.0264 297.725 24.6316V43.5522H294.361C293.827 43.5815 293.294 43.4756 292.803 43.2426C292.377 42.9206 292.064 42.4471 291.915 41.9009L291.339 39.9745C290.654 40.6281 289.984 41.2129 289.346 41.6945C288.722 42.1934 288.054 42.6199 287.352 42.9674C286.645 43.32 285.903 43.5798 285.14 43.7414C284.278 43.9219 283.402 44.0083 282.524 43.9994C281.411 44.0137 280.303 43.8396 279.238 43.4834C278.301 43.1648 277.436 42.6314 276.699 41.9182C275.975 41.2112 275.41 40.3279 275.048 39.3381C274.639 38.2063 274.438 36.996 274.456 35.7775C274.471 34.618 274.738 33.4793 275.235 32.4578C275.853 31.2135 276.755 30.1698 277.852 29.4305C279.388 28.3953 281.066 27.6403 282.82 27.1944C285.372 26.5314 287.985 26.191 290.607 26.1796V24.6316C290.719 23.1513 290.337 21.677 289.533 20.4862C289.133 20.0271 288.647 19.6706 288.108 19.4418C287.57 19.2129 286.993 19.1173 286.418 19.1618C285.567 19.1299 284.718 19.2639 283.91 19.5574C283.302 19.7814 282.714 20.0634 282.15 20.4002L280.733 21.243C280.252 21.5179 279.716 21.654 279.175 21.6387C278.718 21.6603 278.267 21.5086 277.898 21.2086C277.559 20.9378 277.269 20.5995 277.042 20.211L275.765 17.5965ZM290.607 30.9614C289.124 31.0291 287.647 31.2014 286.184 31.4774C285.21 31.6525 284.262 31.9706 283.365 32.4234C282.779 32.721 282.27 33.1764 281.885 33.7479C281.546 34.3943 281.407 35.1451 281.488 35.8868C281.57 36.6285 281.868 37.3207 282.337 37.8588C283.067 38.3833 283.929 38.6365 284.798 38.5812C285.87 38.6005 286.934 38.3598 287.913 37.876C288.908 37.3097 289.805 36.5526 290.56 35.6399L290.607 30.9614Z" fill="#171717"/>
<path d="M312.195 16.9082C312.735 16.3427 313.302 15.8088 313.893 15.3086C314.482 14.8316 315.107 14.4115 315.762 14.0529C316.45 13.6992 317.17 13.4281 317.911 13.2445C318.729 13.0455 319.565 12.9474 320.403 12.9521C321.756 12.922 323.099 13.2093 324.343 13.7949C325.449 14.3373 326.433 15.1418 327.225 16.1514C328.042 17.2093 328.647 18.4462 329 19.7807C329.407 21.2756 329.606 22.8297 329.592 24.3905V43.4831H322.397V24.3905C322.473 22.9915 322.098 21.6079 321.337 20.4859C320.945 20.0127 320.462 19.6432 319.922 19.4049C319.383 19.1667 318.802 19.0658 318.223 19.1099C317.225 19.1036 316.239 19.3508 315.341 19.8323C314.392 20.3515 313.528 21.0434 312.787 21.8792V43.4831H305.498V13.4165H309.937C310.339 13.3829 310.74 13.5029 311.071 13.7566C311.403 14.0102 311.646 14.382 311.759 14.8098L312.195 16.9082Z" fill="#171717"/>
<path d="M343.189 29.6882C343.226 31.9728 343.999 34.1681 345.369 35.8804C346.01 36.5431 346.765 37.0579 347.589 37.3946C348.412 37.7313 349.289 37.8832 350.166 37.8413C351.047 37.8656 351.925 37.732 352.767 37.4457C353.43 37.2146 354.076 36.927 354.698 36.5856L356.256 35.7084C356.664 35.452 357.125 35.3157 357.595 35.3128C357.851 35.3009 358.106 35.3591 358.337 35.4821C358.568 35.6051 358.768 35.7892 358.919 36.018L361.037 38.9249C360.296 39.8812 359.43 40.7102 358.467 41.3846C357.556 42.0273 356.578 42.547 355.555 42.9327C354.575 43.3116 353.563 43.5768 352.533 43.7239C351.553 43.8725 350.564 43.9472 349.574 43.9475C347.757 43.9635 345.952 43.6138 344.248 42.9155C342.633 42.2363 341.164 41.1937 339.934 39.8538C338.669 38.4108 337.688 36.695 337.052 34.814C336.313 32.5839 335.954 30.2221 335.993 27.8477C335.976 25.8754 336.287 23.9163 336.912 22.0684C337.479 20.2981 338.377 18.6791 339.547 17.3162C340.717 15.9532 342.132 14.8766 343.703 14.1561C345.456 13.3396 347.344 12.9355 349.247 12.9692C350.893 12.9538 352.528 13.2625 354.075 13.8809C355.514 14.4685 356.818 15.3989 357.895 16.6058C358.972 17.8127 359.795 19.2666 360.305 20.8643C360.924 22.725 361.225 24.6962 361.193 26.6781C361.197 27.1725 361.171 27.6667 361.115 28.1574C361.083 28.4887 360.993 28.8101 360.85 29.1034C360.737 29.3203 360.562 29.4896 360.352 29.585C360.085 29.6766 359.806 29.7174 359.526 29.7054L343.189 29.6882ZM354.652 24.9064C354.657 24.098 354.557 23.2928 354.356 22.5156C354.161 21.7794 353.832 21.0947 353.39 20.5031C352.94 19.906 352.369 19.4346 351.724 19.1271C350.968 18.7635 350.149 18.5873 349.325 18.611C348.578 18.564 347.83 18.6845 347.126 18.9653C346.422 19.2461 345.776 19.6815 345.229 20.2451C344.156 21.5352 343.48 23.1667 343.298 24.9064H354.652Z" fill="#171717"/>
<path d="M28.4237 1.30762L0 42.6406H1.01235L28.7197 1.30762H28.4237Z" fill="#071360"/>
<path d="M44.8711 1.30762L72.5784 42.6406H73.5908L45.167 1.30762H44.8711Z" fill="#071360"/>
<path d="M38.3382 1.30762V2.21925H35.3962V1.30762L29.1716 1.30762L3.11523 42.6406H70.4756L44.4192 1.30762L38.3382 1.30762ZM35.3962 3.02768H38.3693V6.46779H35.2871L35.3962 3.02768ZM35.3027 8.08465H38.4316L38.5251 14.5177H35.1937L35.3027 8.08465ZM35.147 17.0634H38.5562L38.6964 27.7793H34.9445L35.147 17.0634ZM34.6797 42.6406L34.8822 31.271H38.6964L38.8522 42.6406H34.6797Z" fill="#071360"/>
</svg>
